<?xml version="1.0" standalone="no"?>
<!DOCTYPE svg PUBLIC "-//W3C//DTD SVG 20010904//EN"
 "http://www.w3.org/TR/2001/REC-SVG-20010904/DTD/svg10.dtd">
<svg version="1.0" xmlns="http://www.w3.org/2000/svg"
 width="684.000000pt" height="523.000000pt" viewBox="0 0 684.000000 523.000000"
 preserveAspectRatio="xMidYMid meet">

<g transform="translate(0.000000,523.000000) scale(0.100000,-0.100000)"
fill="#000000" stroke="none">
<path d="M3370 5098 c-69 -5 -758 -49 -1532 -98 -774 -49 -1416 -93 -1426 -99
-11 -6 -24 -23 -30 -38 -11 -29 -21 -372 -23 -791 l-2 -233 33 -34 32 -33 -6
-144 c-3 -79 -8 -260 -11 -403 -3 -143 -7 -314 -10 -380 -3 -66 -7 -250 -10
-410 -3 -159 -7 -339 -10 -400 -2 -60 -7 -245 -10 -410 -3 -165 -8 -338 -10
-385 -3 -47 -7 -236 -10 -420 -3 -184 -8 -365 -11 -402 -7 -89 13 -132 110
-230 58 -59 87 -80 119 -89 40 -11 350 -8 707 6 63 2 239 7 390 10 151 3 327
7 390 10 63 3 243 7 400 11 157 3 418 9 580 13 176 5 310 4 335 -1 59 -14 173
-4 225 19 52 23 99 67 112 105 9 25 14 27 91 32 45 3 165 8 267 11 241 7 1323
43 1510 50 80 3 289 9 465 15 532 16 554 19 570 59 7 18 7 969 0 1336 -3 132
-7 669 -10 1194 l-6 954 -24 47 c-29 57 -41 61 -160 55 -49 -3 -214 -10 -365
-15 -151 -6 -347 -13 -435 -16 l-160 -6 -52 28 c-29 16 -97 71 -150 123 -284
275 -327 314 -358 327 -21 8 -68 14 -117 14 -73 0 -751 -49 -915 -66 l-61 -6
-4 63 c-2 35 -5 122 -7 193 -3 187 -9 206 -92 306 -39 47 -77 93 -83 102 -15
20 -59 39 -89 37 -12 -1 -78 -6 -147 -11z m-1358 -233 c0 -8 1 -20 2 -27 1 -7
-14 -15 -31 -19 -36 -7 -42 5 -23 42 13 22 49 26 52 4z m-241 -11 c34 -41 9
-87 -45 -82 -23 2 -33 10 -40 30 -18 51 51 93 85 52z m-300 -39 c-1 -15 -24
-12 -29 3 -3 9 2 13 12 10 10 -1 17 -7 17 -13z m-328 -90 c80 -40 138 -106
165 -189 27 -82 28 -126 3 -205 -77 -248 -388 -341 -574 -171 -80 73 -102 124
-102 240 0 81 4 103 25 145 24 49 104 145 122 145 5 0 -8 -16 -28 -37 -117
-117 -114 -319 8 -428 57 -52 119 -77 192 -78 81 -1 131 15 190 60 137 105
155 304 40 432 -62 68 -122 95 -214 96 -41 0 -86 -4 -100 -8 -23 -7 -23 -7 -5
4 61 39 193 35 278 -6z m-313 -15 c-8 -5 -19 -10 -25 -10 -5 0 -3 5 5 10 8 5
20 10 25 10 6 0 3 -5 -5 -10z m217 -5 c30 -9 66 -30 90 -53 22 -20 32 -32 24
-26 -9 7 -36 22 -60 34 -52 26 -150 29 -204 6 -44 -18 -54 -33 -22 -33 72 0
120 -52 120 -130 0 -44 -5 -56 -29 -82 -36 -38 -85 -53 -128 -40 -35 10 -88
56 -88 76 0 7 -4 13 -10 13 -13 0 -13 -74 0 -121 14 -51 48 -98 98 -136 53
-41 42 -43 -19 -4 -60 39 -84 67 -108 129 -86 220 110 434 336 367z m2361
-391 l-3 -136 -30 -12 -30 -13 2 71 c1 39 2 101 3 137 0 58 3 67 23 77 12 6
26 11 30 11 4 1 6 -60 5 -135z m-2 -606 c-10 -705 -16 -1166 -22 -1803 -3
-341 -7 -687 -9 -770 -2 -82 -4 -187 -4 -232 -1 -59 -5 -83 -13 -83 -7 0 -25
-7 -41 -14 -26 -14 -27 -14 -23 7 3 12 7 263 11 557 3 294 7 648 10 785 6 282
12 711 21 1430 6 484 7 490 28 507 49 40 48 46 42 -384z m-470 -155 c15 -16
16 -39 11 -258 -4 -132 -9 -521 -13 -865 -3 -390 -9 -635 -16 -652 -6 -15 -18
-29 -27 -32 -18 -5 -96 -9 -576 -31 -370 -17 -508 -24 -620 -30 -44 -3 -143
-7 -220 -11 -77 -3 -214 -9 -305 -13 -97 -5 -179 -4 -200 1 -46 12 -196 168
-210 218 -6 22 -10 322 -10 796 0 748 0 761 20 779 18 16 86 21 712 51 381 18
745 35 808 38 63 3 192 9 285 12 94 4 172 8 174 10 2 2 42 4 87 4 64 0 86 -4
100 -17z m3199 -805 c3 -13 4 -79 3 -147 l-3 -125 -30 -2 c-16 -2 -103 -5
-192 -7 l-163 -5 0 47 c0 25 -3 92 -7 148 l-6 102 59 3 c32 2 121 4 196 6 137
3 137 3 143 -20z m-423 -30 c3 -24 6 -91 7 -149 l2 -106 -128 -6 c-70 -4 -160
-7 -199 -7 l-71 0 -8 141 c-4 77 -4 143 -1 146 3 4 72 9 154 12 81 3 168 7
193 9 l47 3 4 -43z m-430 -25 c3 -26 4 -93 4 -147 -1 -80 -4 -99 -16 -101 -8
-1 -101 -5 -206 -9 -179 -6 -192 -6 -196 11 -2 10 -4 77 -4 148 l1 130 95 3
c52 1 109 4 125 5 17 1 67 4 111 5 l82 3 4 -48z m-447 -113 c4 -78 5 -143 2
-146 -2 -3 -71 -7 -153 -10 -82 -3 -168 -6 -191 -8 l-43 -3 0 148 0 148 83 3
c45 2 130 4 188 6 l106 3 8 -141z m-415 -14 c3 -76 3 -142 0 -146 -3 -4 -81
-9 -175 -11 l-170 -4 3 139 c1 77 4 141 6 143 2 2 66 7 142 10 77 3 140 7 142
8 1 1 13 2 25 1 21 -1 22 -5 27 -140z m1720 -261 c0 -108 -3 -147 -12 -150 -7
-2 -91 -6 -186 -10 -137 -5 -173 -3 -176 7 -4 11 -15 276 -12 279 0 1 62 5
136 8 74 3 161 7 193 9 l57 3 0 -146z m-409 23 c0 -57 2 -122 5 -145 3 -24 4
-43 2 -43 -1 0 -94 -3 -205 -7 l-203 -6 0 54 c0 30 -3 95 -7 146 l-6 92 89 3
c49 2 142 4 207 6 l117 3 1 -103z m-438 59 c2 -17 4 -83 3 -147 l-1 -115 -204
-8 c-112 -4 -207 -4 -210 -1 -3 3 -7 68 -9 144 l-3 138 38 4 c21 3 94 6 163 7
69 1 126 3 127 4 1 1 22 3 46 4 43 2 45 1 50 -30z m-452 -69 c0 -46 3 -111 5
-145 l6 -63 -54 -1 c-29 -1 -117 -4 -196 -8 l-142 -6 -1 85 c-1 47 -2 112 -3
145 l-1 60 110 5 c61 3 147 6 193 8 l82 3 1 -83z m-416 -79 l0 -144 -165 -6
c-91 -3 -171 -4 -178 -1 -10 3 -12 37 -10 143 3 115 6 139 18 140 38 4 316 15
325 14 6 -1 10 -57 10 -146z m397 -494 c4 -22 7 -88 7 -147 1 -93 -1 -107 -16
-112 -10 -2 -99 -6 -198 -8 l-180 -3 0 150 0 150 105 3 c58 1 121 4 140 6 19
2 57 3 85 2 l50 -1 7 -40z m-1888 -6 c-9 -10 -27 -19 -38 -18 -21 0 -21 0 1 9
12 5 27 19 34 32 8 15 14 18 17 10 2 -7 -4 -22 -14 -33z m1476 -16 c1 -27 3
-93 6 -149 l6 -101 -92 -6 c-51 -4 -135 -7 -185 -7 -103 0 -104 1 -99 70 1 19
3 79 3 132 l1 97 78 4 c42 1 123 4 180 5 l102 2 0 -47z m1647 -33 c44 -27 66
-64 67 -115 1 -54 -35 -97 -98 -115 -51 -14 -83 -4 -119 40 -50 59 -26 164 46
195 44 19 66 18 104 -5z m-3914 -7 c-7 -2 -19 -2 -25 0 -7 3 -2 5 12 5 14 0
19 -2 13 -5z m-210 -480 c3 -5 8 -71 11 -148 4 -77 9 -167 12 -200 3 -41 1
-66 -8 -77 -14 -19 -58 -23 -328 -33 -85 -3 -217 -8 -292 -12 l-138 -6 -1 24
c0 13 -2 33 -4 44 -8 41 -6 368 2 375 8 8 110 15 383 26 85 4 157 8 159 10 8
7 200 4 204 -3z m1437 -585 l0 -143 -40 -17 -41 -17 3 141 3 141 30 18 c17 10
33 18 38 18 4 1 7 -63 7 -141z"/>
<path d="M1977 3393 c-4 -3 -7 -19 -7 -35 0 -21 6 -31 23 -37 42 -16 69 16 51
63 -6 16 -54 22 -67 9z"/>
<path d="M1668 3364 c-11 -23 -10 -29 11 -45 21 -17 26 -18 45 -6 41 27 27 77
-20 77 -17 0 -28 -9 -36 -26z"/>
<path d="M2389 3236 c-2 -2 -96 -6 -209 -9 -616 -19 -1087 -40 -1110 -51 l-25
-11 3 -560 c2 -512 4 -561 20 -578 16 -19 28 -19 227 -13 116 4 235 9 265 11
30 3 179 9 330 15 151 6 302 12 335 15 33 2 147 7 252 11 132 5 198 11 210 20
17 11 18 40 16 371 -3 795 -2 750 -19 767 -12 13 -41 16 -153 16 -76 0 -140
-2 -142 -4z"/>
<path d="M2545 1999 c-48 -4 -38 -6 53 -7 73 -1 112 2 112 9 0 10 -45 10 -165
-2z"/>
<path d="M2542 1942 c-99 -6 -44 -17 67 -14 70 2 109 7 105 13 -5 9 -26 9
-172 1z"/>
<path d="M1084 1899 c-22 -11 -44 -48 -44 -74 0 -8 10 -26 23 -40 45 -53 127
-25 127 45 0 54 -59 92 -106 69z"/>
<path d="M2490 1870 c0 -12 98 -12 180 0 46 6 36 7 -62 9 -73 0 -118 -3 -118
-9z"/>
<path d="M2530 1819 c-41 -4 -25 -6 63 -7 75 -1 117 2 117 8 0 11 -78 11 -180
-1z"/>
</g>
</svg>
